<svg width="48" height="48" viewBox="0 0 48 48" fill="none" xmlns="http://www.w3.org/2000/svg">
<path d="M16.875 8.625H16.5C16.7063 8.625 16.875 8.45625 16.875 8.25V8.625H31.125V8.25C31.125 8.45625 31.2937 8.625 31.5 8.625H31.125V12H34.5V8.25C34.5 6.59531 33.1547 5.25 31.5 5.25H16.5C14.8453 5.25 13.5 6.59531 13.5 8.25V12H16.875V8.625ZM40.5 12H7.5C6.67031 12 6 12.6703 6 13.5V15C6 15.2063 6.16875 15.375 6.375 15.375H9.20625L10.3641 39.8906C10.4391 41.4891 11.7609 42.75 13.3594 42.75H34.6406C36.2438 42.75 37.5609 41.4938 37.6359 39.8906L38.7937 15.375H41.625C41.8313 15.375 42 15.2063 42 15V13.5C42 12.6703 41.3297 12 40.5 12ZM34.2797 39.375H13.7203L12.5859 15.375H35.4141L34.2797 39.375Z" fill="white"/>
</svg>
