<svg width="48" height="48" viewBox="0 0 48 48" fill="none" xmlns="http://www.w3.org/2000/svg">
<g clip-path="url(#clip0_101_26)">
<path d="M33.525 32.3344L36.1917 29.3344C36.6083 28.8656 37.3333 29.1938 37.3333 29.8688V43.5C37.3333 45.9844 35.5417 48 33.3333 48H4C1.79167 48 0 45.9844 0 43.5V10.5C0 8.01563 1.79167 6 4 6H26.7917C27.3833 6 27.6833 6.80625 27.2667 7.28438L24.6 10.2844C24.475 10.425 24.3083 10.5 24.125 10.5H4V43.5H33.3333V32.8594C33.3333 32.6625 33.4 32.475 33.525 32.3344ZM46.575 13.4156L24.6917 38.0344L17.1583 38.9719C14.975 39.2438 13.1167 37.1719 13.3583 34.6969L14.1917 26.2219L36.075 1.60313C37.9833 -0.543749 41.0667 -0.543749 42.9667 1.60313L46.5667 5.65313C48.475 7.8 48.475 11.2781 46.575 13.4156V13.4156ZM38.3417 16.3125L33.5 10.8656L18.0167 28.2938L17.4083 34.4156L22.85 33.7313L38.3417 16.3125ZM43.7417 8.84063L40.1417 4.79063C39.8 4.40625 39.2417 4.40625 38.9083 4.79063L36.3333 7.6875L41.175 13.1344L43.75 10.2375C44.0833 9.84375 44.0833 9.225 43.7417 8.84063V8.84063Z" fill="white"/>
</g>
<defs>
<clipPath id="clip0_101_26">
<rect width="48" height="48" fill="white"/>
</clipPath>
</defs>
</svg>
